<svg xmlns="http://www.w3.org/2000/svg" width="26.788" height="26.788" viewBox="0 0 26.788 26.788">
  <path id="icons8-facebook" d="M5.152,0A5.167,5.167,0,0,0,0,5.152V21.637a5.167,5.167,0,0,0,5.152,5.152H21.637a5.167,5.167,0,0,0,5.152-5.152V5.152A5.167,5.167,0,0,0,21.637,0Zm0,2.061H21.637a3.074,3.074,0,0,1,3.091,3.091V21.637a3.074,3.074,0,0,1-3.091,3.091H18.349V16.417h2.878l.431-3.316H18.349V10.987c0-.96.267-1.614,1.654-1.614h1.771V6.407a23.848,23.848,0,0,0-2.58-.129A4.006,4.006,0,0,0,14.9,10.657V13.1l-2.536-.008v3.316l2.536.008v8.311H5.152a3.074,3.074,0,0,1-3.091-3.091V5.152A3.074,3.074,0,0,1,5.152,2.061Z" transform="translate(26.788) rotate(90)" fill="#fff"/>
</svg>
