<svg xmlns="http://www.w3.org/2000/svg" width="26.788" height="26.788" viewBox="0 0 26.788 26.788">
  <path id="icons8-instagram_1_" data-name="icons8-instagram (1)" d="M8.776,1A7.791,7.791,0,0,0,1,8.776V20.021a7.79,7.79,0,0,0,7.776,7.768H20.021a7.79,7.79,0,0,0,7.768-7.776V8.776A7.791,7.791,0,0,0,20.013,1Zm0,2.061H20.013a5.7,5.7,0,0,1,5.715,5.715V20.013a5.694,5.694,0,0,1-5.707,5.715H8.776a5.694,5.694,0,0,1-5.715-5.707V8.776A5.7,5.7,0,0,1,8.776,3.061ZM22.637,5.121a1.03,1.03,0,1,0,1.03,1.03A1.027,1.027,0,0,0,22.637,5.121ZM14.394,7.182a7.212,7.212,0,1,0,7.212,7.212A7.231,7.231,0,0,0,14.394,7.182Zm0,2.061a5.152,5.152,0,1,1-5.152,5.152A5.136,5.136,0,0,1,14.394,9.243Z" transform="translate(-1 -1)" fill="#fff"/>
</svg>
