<svg xmlns="http://www.w3.org/2000/svg" width="27.789" height="30.372" viewBox="0 0 27.789 30.372">
  <path id="icons8-twitter" d="M17.656,0a6.088,6.088,0,0,0-6.062,5.962,10.46,10.46,0,0,1-6-2.521A6.807,6.807,0,0,1,3.893,1.186.913.913,0,0,0,2.314.974a6.469,6.469,0,0,0-1.1,3.592A5.378,5.378,0,0,0,2.061,7.45C2.044,7.442,1.93,7.4,1.93,7.4a.913.913,0,0,0-1.318.9A7.454,7.454,0,0,0,3.38,12.75l-.252.063a.913.913,0,0,0-.572,1.339,6.333,6.333,0,0,0,1.268,1.422A9.885,9.885,0,0,0,5.96,16.865a14.477,14.477,0,0,1-5.047.791.913.913,0,0,0-.687,1.515A7.287,7.287,0,0,0,2.3,20.609a14.861,14.861,0,0,0,6.525,1.309,13.887,13.887,0,0,0,11.5-5.774A17.657,17.657,0,0,0,23.744,6.088c0-.188-.012-.373-.029-.557a9.34,9.34,0,0,0,1.791-2.215.609.609,0,0,0-.8-.825l-.1.045-.254.117A5.355,5.355,0,0,0,24.934,1.4a.608.608,0,0,0-.9-.7,8.88,8.88,0,0,1-2.2.981A6.06,6.06,0,0,0,17.656,0Zm0,1.826a4.248,4.248,0,0,1,4.262,4.262,16.123,16.123,0,0,1-3.056,8.971A11.9,11.9,0,0,1,8.828,20.091a13.016,13.016,0,0,1-4.96-.863,15,15,0,0,0,2.968-.721,7.7,7.7,0,0,0,1.978-1.071.913.913,0,0,0-.373-1.579,8.289,8.289,0,0,1-3.388-1.643l.953-.238a.913.913,0,0,0,.107-1.739A5.4,5.4,0,0,1,2.883,9.5a7.417,7.417,0,0,0,1.684.239.913.913,0,0,0,.408-1.73,3.73,3.73,0,0,1-1.71-4.542,8.062,8.062,0,0,0,1.1,1.315,12.6,12.6,0,0,0,8.073,3.13A.913.913,0,0,0,13.394,7V6.088A4.248,4.248,0,0,1,17.656,1.826Z" transform="matrix(-0.259, 0.966, -0.966, -0.259, 27.789, 5.673)" fill="#fff"/>
</svg>
